<?xml version="1.0" encoding="utf-8"?>
<!-- Generator: Adobe Illustrator 22.0.1, SVG Export Plug-In . SVG Version: 6.00 Build 0)  -->
<svg version="1.0" id="Livello_1" xmlns="http://www.w3.org/2000/svg" xmlns:xlink="http://www.w3.org/1999/xlink" x="0px" y="0px"
	 viewBox="0 0 400 240" style="enable-background:new 0 0 400 240;" xml:space="preserve">
<g>
	<path style="fill:#3C88DE;" d="M181,86h-20l0,0c0-27.6-22.4-50-50-50l0,0V16l0,0C149.6,16,181,47.3,181,86"/>
	<path style="fill:#FF6B00;" d="M144,86c0-18.2-14.8-33-33-33l0-0.1V39.8l0,0c25.5,0,46.2,20.7,46.2,46.2l0,0L144,86"/>
</g>
<g>
	<g>
		<path style="fill:#FF6B00;" d="M84.2,69.2v88.9c0,7.7,0.3,16,0.6,21.2h-17L67,167.4h-0.3C62.1,175.8,53,181,42.1,181
			c-18,0-32.3-15.4-32.3-38.6c-0.1-25.3,15.7-40.3,33.8-40.3c10.3,0,17.8,4.3,21.1,9.8h0.3V69.2H84.2z M65.1,135.3
			c0-1.5-0.1-3.4-0.4-5c-1.7-7.4-7.8-13.4-16.4-13.4c-12.3,0-19.1,10.8-19.1,24.8c0,13.9,6.9,24,18.9,24c7.8,0,14.6-5.3,16.5-13.6
			c0.4-1.7,0.6-3.6,0.6-5.6V135.3z"/>
		<path style="fill:#FF6B00;" d="M125,82.7c0,5.7-4.1,10.3-10.9,10.3c-6.3,0-10.5-4.6-10.5-10.3c0-5.8,4.3-10.3,10.7-10.3
			C120.8,72.4,124.9,76.9,125,82.7z M104.8,179.3v-75.5h19.1v75.5H104.8z"/>
		<path style="fill:#3C88DE;" d="M144.4,128.1c0-10.1-0.2-17.5-0.6-24.3h16.5l0.7,14.3h0.5c3.7-10.6,12.5-16,20.7-16
			c1.9,0,3,0.1,4.5,0.4v18c-1.6-0.3-3.3-0.5-5.6-0.5c-9.1,0-15.4,5.8-17.1,14.4c-0.3,1.7-0.5,3.7-0.5,5.8v39.1h-19.1V128.1z"/>
		<path style="fill:#3C88DE;" d="M213.1,146.8c0.5,13.7,11.1,19.7,23.3,19.7c8.8,0,15.1-1.4,20.8-3.5l2.8,13.1
			c-6.5,2.7-15.4,4.8-26.4,4.8c-24.5,0-38.8-15.1-38.8-38.3c0-20.8,12.6-40.5,36.9-40.5c24.5,0,32.5,20.2,32.5,36.7
			c0,3.5-0.3,6.4-0.7,8H213.1z M246.2,133.5c0.1-7-3-18.4-15.7-18.4c-11.7,0-16.6,10.7-17.5,18.4H246.2z"/>
		<path style="fill:#3C88DE;" d="M301.4,82.2v21.6h18.2v14.2h-18.2v33.3c0,9.2,2.5,13.9,9.8,13.9c3.3,0,5.7-0.4,7.4-0.8L319,179
			c-2.9,1.1-7.9,2-13.9,2c-7,0-12.9-2.4-16.4-6.2c-4.1-4.3-6-11.3-6-21.2v-35.5h-10.8v-14.2h10.8V86.7L301.4,82.2z"/>
		<path style="fill:#3C88DE;" d="M347.4,146.8c0.5,13.7,11.1,19.7,23.3,19.7c8.8,0,15.1-1.4,20.8-3.5l2.8,13.1
			c-6.5,2.7-15.4,4.8-26.4,4.8c-24.5,0-38.8-15.1-38.8-38.3c0-20.8,12.6-40.5,36.9-40.5c24.5,0,32.5,20.2,32.5,36.7
			c0,3.5-0.3,6.4-0.7,8H347.4z M380.6,133.5c0.1-7-3-18.4-15.7-18.4c-11.7,0-16.6,10.7-17.5,18.4H380.6z"/>
	</g>
</g>
<g>
	<g>
		<path style="fill:#3C88DE;" d="M45.3,208c1.3-0.2,3.2-0.4,5.7-0.4c2.7,0,4.7,0.6,6,1.7c1.2,1,2,2.6,2,4.5c0,1.9-0.6,3.5-1.7,4.6
			c-1.5,1.5-3.8,2.2-6.4,2.2c-0.7,0-1.3,0-1.8-0.1v7.6h-3.7V208z M49,217.5c0.5,0.1,1.1,0.2,1.8,0.2c2.8,0,4.4-1.4,4.4-3.7
			c0-2.2-1.6-3.4-4.1-3.4c-1,0-1.7,0.1-2.1,0.2V217.5z"/>
		<path style="fill:#3C88DE;" d="M74.8,207.8v11.8c0,4,1.6,5.8,4.1,5.8c2.7,0,4.3-1.8,4.3-5.8v-11.8h3.7v11.5c0,6.2-3.2,9-8.1,9
			c-4.7,0-7.7-2.6-7.7-9v-11.6H74.8z"/>
		<path style="fill:#3C88DE;" d="M118,217.7c0,6.8-4.1,10.6-9.7,10.6c-5.7,0-9.3-4.4-9.3-10.3c0-6.2,3.9-10.6,9.6-10.6
			C114.6,207.5,118,211.9,118,217.7z M102.9,218c0,4.1,2.1,7.4,5.6,7.4c3.6,0,5.6-3.3,5.6-7.5c0-3.8-1.9-7.4-5.6-7.4
			C104.9,210.4,102.9,213.8,102.9,218z"/>
		<path style="fill:#3C88DE;" d="M133.9,207.8V228h-3.7v-20.2H133.9z"/>
		<path style="fill:#3C88DE;" d="M176.9,227.4c-0.9,0.4-2.8,0.9-5.2,0.9c-6.4,0-10.3-4-10.3-10.2c0-6.6,4.6-10.7,10.8-10.7
			c2.4,0,4.2,0.5,4.9,0.9l-0.8,2.9c-0.9-0.4-2.3-0.8-3.9-0.8c-4.1,0-7.1,2.6-7.1,7.4c0,4.5,2.6,7.3,7,7.3c1.5,0,3.1-0.3,4-0.7
			L176.9,227.4z"/>
		<path style="fill:#3C88DE;" d="M207,217.7c0,6.8-4.1,10.6-9.7,10.6c-5.7,0-9.3-4.4-9.3-10.3c0-6.2,3.9-10.6,9.6-10.6
			C203.5,207.5,207,211.9,207,217.7z M191.9,218c0,4.1,2.1,7.4,5.6,7.4c3.6,0,5.6-3.3,5.6-7.5c0-3.8-1.9-7.4-5.6-7.4
			C193.8,210.4,191.9,213.8,191.9,218z"/>
		<path style="fill:#3C88DE;" d="M219.1,228v-20.2h4.2l5.2,8.7c1.3,2.2,2.5,4.6,3.4,6.8l0.1,0c-0.3-2.7-0.3-5.3-0.3-8.4v-7.1h3.4
			V228h-3.8l-5.3-8.9c-1.3-2.2-2.6-4.7-3.6-7l-0.1,0c0.1,2.6,0.2,5.3,0.2,8.6v7.2H219.1z"/>
		<path style="fill:#3C88DE;" d="M252.3,210.9h-5.8v-3.1h15.3v3.1H256V228h-3.7V210.9z"/>
		<path style="fill:#3C88DE;" d="M277.2,222.3l-1.7,5.7h-3.8l6.5-20.2h4.7l6.6,20.2h-4l-1.8-5.7H277.2z M283,219.5l-1.6-5
			c-0.4-1.3-0.7-2.6-1-3.8h-0.1c-0.3,1.2-0.6,2.6-1,3.8l-1.6,5H283z"/>
		<path style="fill:#3C88DE;" d="M301.2,208.1c1.4-0.3,3.5-0.4,5.6-0.4c2.9,0,4.9,0.5,6.2,1.6c1.1,0.9,1.7,2.3,1.7,4.1
			c0,2.6-1.8,4.4-3.7,5.1v0.1c1.5,0.6,2.3,1.9,2.8,3.9c0.6,2.5,1.2,4.8,1.6,5.6h-3.8c-0.3-0.6-0.8-2.3-1.4-4.8
			c-0.6-2.6-1.5-3.5-3.6-3.5h-1.9v8.3h-3.7V208.1z M304.9,217h2.2c2.5,0,4-1.3,4-3.3c0-2.2-1.6-3.2-3.9-3.2c-1.2,0-1.9,0.1-2.3,0.2
			V217z"/>
		<path style="fill:#3C88DE;" d="M341.8,227.4c-0.9,0.4-2.8,0.9-5.2,0.9c-6.4,0-10.3-4-10.3-10.2c0-6.6,4.6-10.7,10.8-10.7
			c2.4,0,4.2,0.5,4.9,0.9l-0.8,2.9c-0.9-0.4-2.3-0.8-3.9-0.8c-4.1,0-7.1,2.6-7.1,7.4c0,4.5,2.6,7.3,7,7.3c1.5,0,3.1-0.3,4-0.7
			L341.8,227.4z"/>
		<path style="fill:#3C88DE;" d="M357.6,207.8V228h-3.7v-20.2H357.6z"/>
	</g>
</g>
</svg>
